<svg id="SvgjsSvg1001" xmlns="http://www.w3.org/2000/svg" version="1.1" xmlns:xlink="http://www.w3.org/1999/xlink" xmlns:svgjs="http://svgjs.com/svgjs" viewBox="-0.02 97.55 288.03 92.9"><defs id="SvgjsDefs1002"/><g id="SvgjsG1008"><svg xmlns="http://www.w3.org/2000/svg" fill-rule="evenodd" clip-rule="evenodd" image-rendering="optimizeQuality" shape-rendering="geometricPrecision" text-rendering="geometricPrecision" viewBox="0 0 13759.93 4438.35" width="288" height="288"><path fill="#2f317b" d="M351.52 791.23l-5.1 5.69c-36.83,-2.28 -93.85,-3.42 -170.93,-3.42 -76.71,0 -133.53,1.13 -170.4,3.42l-5.1 -5.69 0 -37.03 5.69 -5.46c37.57,-2.27 59.11,-4.14 64.6,-5.67 10.78,-2.83 17.01,-9.65 18.9,-20.4 4.7,-26.63 7.17,-83.7 7.17,-171.5l0 -292.77c0,-87.85 -2.47,-145.07 -7.17,-171.5 -1.89,-10.78 -8.12,-17.57 -18.9,-20.6 -5.49,-1.33 -27.02,-3.22 -64.6,-5.49l-5.69 -5.49 0 -37.57 5.69 -5.1c35.32,2.27 92.16,3.4 170.37,3.4 77.81,0 134.49,-1.13 169.81,-3.4l5.65 5.1 0 37.57 -5.65 5.49c-37.61,2.27 -59.14,4.16 -64.6,5.49 -10.78,3.02 -17.01,9.81 -18.89,20.6 -4.72,26.43 -7.18,83.65 -7.18,171.5l0 292.77c0,87.8 2.47,144.87 7.18,171.5 1.87,10.75 8.1,17.57 18.89,20.4 5.46,1.53 26.99,3.4 64.6,5.67l5.65 5.46 0 37.03zm12711.64 1901.89l149.85 4.91c98.23,3.27 162.92,4.93 193.23,4.93 27.01,0 141.62,-3.29 344.27,-9.85l9.42 8.61 0 59.75 -9.42 8.61c-55.24,1.66 -97.85,4.09 -127.73,6.95 -30.29,3.27 -51.99,9.42 -65.5,18.01 -13.51,9.01 -22.5,29.49 -27.02,61.83 -4.47,32.31 -6.53,77.37 -6.53,135.11l-2.47 275.91 0 555.13 1.23 233.76c0.81,90.48 3.29,149 7.36,175.2 3.68,26.64 9.42,44.23 17.19,52.81 7.79,9.02 22.11,16.4 43.8,22.12 21.7,6.13 74.92,10.65 159.65,13.92l9.42 6.95 0 60.17 -9.42 9.42c-4.09,0 -74.49,-2.04 -211.23,-6.95 -56.92,-1.64 -101.12,-2.47 -133.04,-2.47 -24.98,0 -139.2,3.29 -343.08,9.42l-9.83 -9.42 0 -60.17 9.83 -6.95c74.51,-3.27 124.03,-7.36 148.62,-11.88 24.97,-4.9 41.34,-11.05 49.93,-18.84 8.19,-7.36 15.14,-23.73 20.46,-48.29 4.9,-24.97 8.19,-80.24 8.61,-165.81l1.23 -252.99 0 -555.13 -2.05 -234.19c-0.84,-90.86 -3.27,-149.8 -6.99,-176 -3.27,-26.63 -8.99,-44.23 -16.78,-52.81 -7.35,-9.02 -22.09,-15.98 -43.39,-21.73 -21.7,-5.72 -74.92,-9.8 -159.65,-13.08l-9.83 -8.61 0 -59.75 9.83 -8.61zm-148.6 1041.07l0 36.06 -4.93 14.32 -58.94 34.78c-14.33,9.02 -22.52,15.55 -24.98,20.5 -2.43,4.9 -5.33,28.63 -8.99,71.22 -3.7,43 -5.33,94.99 -5.33,156.79 0,69.59 4.09,144.94 13.08,226.38l-7.33 12.28c-219.05,83.94 -444.2,125.67 -675.1,125.67 -177.68,0 -337.74,-33.55 -481.04,-100.71 -142.85,-67.13 -256.68,-166.6 -340.6,-298.41 -83.91,-131.86 -125.67,-288.64 -125.67,-470.42 0,-276.33 94.15,-496.59 283.29,-659.51 189.14,-162.94 436.02,-244.81 740.98,-244.81 223.54,0 424.95,38.07 603.05,114.22l8.61 13.08c-14.74,53.65 -31.54,165.83 -50.38,336.94l-9.85 8.61 -55.23 0 -9.42 -9.85 -6.15 -126.91c-2.47,-41.77 -4.93,-65.89 -7.79,-73.27 -2.86,-7.36 -11.46,-16.78 -25.79,-28.25 -14.32,-11.46 -51.18,-29.87 -110.93,-55.26 -59.37,-24.98 -119.15,-43.39 -179.32,-54.85 -59.76,-11.9 -124.03,-17.6 -192.82,-17.6 -146.55,0 -275.94,30.29 -388.92,91.29 -112.59,60.59 -197.73,149.41 -254.64,265.68 -57.31,116.26 -85.96,245.65 -85.96,387.69 0,147.37 31.11,284.12 92.52,411.03 61.41,126.5 149.84,225.54 264.88,296.8 115.45,71.22 249.31,106.84 402.01,106.84 66.32,0 133.86,-6.56 203.08,-20.07 69.17,-13.08 126.07,-31.49 171.11,-55.65 6.95,-25.39 10.65,-76.97 10.65,-154.75l0 -133.06c0,-63.03 -3.7,-102.35 -11.88,-118.29 -8.19,-15.57 -27.83,-26.64 -59.37,-32.77 -31.49,-6.53 -99.89,-10.62 -204.69,-11.85l-10.65 -11.08 0 -52.81 10.65 -10.65 73.29 2.48c125.69,4.08 228.01,5.74 307.02,5.74 45.45,0 112.59,-2.04 200.22,-6.99l12.28 9.42zm-2553.36 -1041.07l149.84 4.91c98.24,3.27 162.94,4.93 193.23,4.93 27.02,0 141.63,-3.29 344.28,-9.85l9.42 8.61 0 59.75 -9.42 8.61c-55.24,1.66 -97.85,4.09 -127.73,6.95 -30.29,3.27 -51.99,9.42 -65.5,18.01 -13.51,9.01 -22.5,29.49 -27.02,61.83 -4.49,32.31 -6.53,77.37 -6.53,135.11l-2.47 275.91 0 555.13 1.23 233.76c0.81,90.48 3.27,149 7.36,175.2 3.67,26.64 9.42,44.23 17.18,52.81 7.81,9.02 22.12,16.4 43.82,22.12 21.7,6.13 74.92,10.65 159.65,13.92l9.42 6.95 0 60.17 -9.42 9.42c-4.09,0 -74.51,-2.04 -211.23,-6.95 -56.92,-1.64 -101.12,-2.47 -133.06,-2.47 -24.97,0 -139.19,3.29 -343.07,9.42l-9.85 -9.42 0 -60.17 9.85 -6.95c74.49,-3.27 124.03,-7.36 148.6,-11.88 24.98,-4.9 41.34,-11.05 49.95,-18.84 8.19,-7.36 15.14,-23.73 20.46,-48.29 4.9,-24.97 8.19,-80.24 8.6,-165.81l1.23 -252.99 0 -555.13 -2.04 -234.19c-0.84,-90.86 -3.29,-149.8 -6.99,-176 -3.27,-26.63 -8.99,-44.23 -16.78,-52.81 -7.35,-9.02 -22.09,-15.98 -43.39,-21.73 -21.7,-5.72 -74.92,-9.8 -159.65,-13.08l-9.85 -8.61 0 -59.75 9.85 -8.61zm-1527.03 8.61l9.85 -8.61c198.13,6.56 312.77,9.85 343.07,9.85 27.02,0 141.63,-3.29 344.27,-9.85l9.42 8.61 0 59.75 -9.42 8.61c-55.23,1.66 -97.81,4.09 -127.71,6.95 -30.28,3.27 -52.01,9.42 -65.5,18.01 -13.51,9.01 -22.52,29.49 -27.02,61.83 -4.49,32.31 -6.53,77.37 -6.53,135.11l-2.48 275.91 0 530.17c0,132.63 0.82,225.15 2.48,277.96l6.13 207.55 244.41 0c195.27,0 316.87,-2.43 365.16,-6.95 48.32,-4.9 94.99,-16.78 139.99,-34.78 8.61,-20.07 21.3,-66.34 37.67,-137.99 16.37,-72.03 24.98,-113.79 25.79,-124.84l10.65 -9.42 58.94 0 8.19 9.42c-6.13,31.92 -13.08,93.72 -19.64,185.85 -6.95,92.11 -10.24,166.22 -10.24,223.11l-9.42 9.42c-151.88,-4.5 -351.65,-6.95 -598.53,-6.95l-350.4 -2.47c-79.87,0 -161.31,3.29 -244.41,9.42l-9.85 -9.42 0 -39.71 9.85 -11.85c49.52,-25.82 76.55,-41.39 81.44,-46.68 4.52,-5.74 9.85,-57.31 14.74,-154.77 5.33,-97.44 7.79,-215.32 7.79,-352.47l0 -514.6 -2.04 -234.19c-0.82,-90.86 -3.29,-149.8 -6.99,-176 -3.25,-26.63 -8.99,-44.23 -16.77,-52.81 -7.36,-9.02 -22.11,-15.98 -43.8,-21.73 -21.3,-5.72 -74.52,-9.8 -159.26,-13.08l-9.85 -8.61 0 -59.75zm-101.91 -8.61l11.05 11.08c-7.38,71.65 -11.05,197.32 -11.05,376.61l-9.42 9.42 -56.51 0 -9.42 -10.65 -13.51 -110.5c-6.13,-58.97 -11.46,-95.41 -14.74,-108.5 -3.67,-13.1 -9.39,-22.93 -17.6,-28.65 -7.76,-6.15 -33.96,-11.08 -77.78,-15.17 -44.2,-4.09 -93.33,-6.13 -147.37,-6.13l-226.81 0c-6.53,180.95 -9.8,285.32 -9.8,313.18l0 699.23 2.47 233.76c0.81,90.48 2.86,149 6.53,176.02 3.7,26.63 9.42,44.23 16.78,52.42 7.79,8.6 22.52,15.98 43.82,21.7 21.68,6.13 75.31,10.65 160.88,13.92l8.19 6.95 0 60.17 -8.19 9.42c-204.7,-6.13 -318.92,-9.42 -343.08,-9.42 -25.77,0 -139.58,3.29 -341.83,9.42l-9.42 -9.42 0 -60.17 9.42 -6.95c75.35,-3.27 124.87,-7.36 149.43,-11.88 24.16,-4.9 40.53,-11.05 49.13,-18.84 8.19,-7.36 15.17,-23.73 20.89,-48.29 5.74,-24.97 8.6,-80.24 8.6,-165.81l2.43 -252.99 0 -699.23c0,-12.69 -3.24,-117.09 -9.8,-313.18l-178.91 0c-73.26,0 -136.72,1.66 -190.37,4.9 -53.62,3.29 -84.73,11.47 -92.92,24.59 -8.6,13.08 -16.4,56.08 -23.73,128.96l-11.88 110.5 -10.65 10.65 -55.28 0 -9.42 -9.42c-1.63,-192.8 -5.29,-318.48 -11.05,-376.61l11.05 -11.08c139.19,6.56 370.52,9.85 694.32,9.85 330.38,0 562.1,-3.29 695.57,-9.85zm-3409.81 1703.48l-10.65 -11.08 0 -55.24 10.65 -9.42c49.15,-0.84 88.02,-3.7 117.08,-8.6 29.06,-4.52 47.9,-12.71 56.51,-23.75 8.19,-11.06 13.94,-29.06 16.78,-54.03 2.86,-24.98 5.33,-80.67 8.19,-167.87 2.86,-87.2 4.52,-149.43 4.52,-187.1l0 -969.01c0,-40.94 -7.79,-71.22 -22.53,-90.89 -14.74,-19.23 -34.78,-31.92 -60.57,-36.82 -25.39,-5.34 -69.21,-8.19 -130.62,-9.01l-9.42 -9.83 0 -56.1 9.42 -11.03c110.55,4.09 182.58,6.13 216.98,6.13 81.05,0 147.4,-2.04 199.39,-6.13l382.37 496.57 562.48 705.38c67.97,85.54 137.15,166.6 207.55,243.18l0 -928.1c0,-29.06 -1.2,-90.06 -4.09,-184.22 -2.86,-93.74 -6.13,-153.52 -10.22,-178.49 -4.09,-25.38 -11.05,-42.16 -20.89,-51.18 -10.22,-8.58 -29.06,-15.57 -56.48,-19.66 -27.43,-4.47 -65.11,-6.94 -112.16,-7.76l-9.42 -9.85 0 -54.85 9.42 -11.03c64.66,4.09 157.18,6.13 277.14,6.13 109.32,0 189.14,-2.04 238.68,-6.13l10.65 11.03 0 54.85 -9.42 9.85c-52.81,0.82 -93.75,3.67 -122.4,8.99 -28.68,4.91 -46.66,13.51 -54.04,25.79 -7.36,11.88 -12.28,29.49 -15.17,52.81 -2.43,22.93 -5.33,78.21 -8.17,165.4 -2.86,87.2 -4.09,149.84 -4.09,188.32l0 569.47 1.23 329.95c1.23,108.07 2.86,216.16 4.5,325.08 -39.71,-13.51 -108.91,-30.31 -207.58,-50.38l-85.16 -100.71 -255.44 -311.95 -813.02 -1015.67 0 919.86c0,36.87 1.63,102.37 4.09,196.52 2.86,94.56 6.13,151.46 10.22,171.53 4.09,20.07 9.42,33.97 15.57,41.34 6.56,7.79 20.45,14.74 41.34,21.3 21.3,6.15 65.11,9.81 131.43,10.65l9.8 9.42 0 56.48 -9.8 9.85c-41.37,-5.75 -108.5,-8.61 -201.42,-8.61 -119.15,0 -223.54,2.86 -313.2,8.61zm-1491.79 -1694.87l9.42 -8.61c274.3,4.91 449.92,7.38 526.47,7.38 262.4,0 495.76,-2.47 700.47,-7.38l6.13 8.61c-20.07,76.55 -34.81,196.9 -44.23,361.06l-7.33 9.42 -58.97 0 -10.63 -9.42c0.82,-7.38 1.22,-13.91 1.22,-19.23 0,-67.97 -5.34,-132.63 -15.57,-194.46 -50.33,-22.5 -119.92,-36.82 -209.17,-43.8 -89.23,-6.53 -156.4,-10.24 -201.02,-10.24 -63.03,0 -144.1,4.52 -242.38,13.51l-4.47 191.6 -3.7 219.41 -3.68 243.59c86.39,4.91 165.8,7.38 238.66,7.38 73.7,0 135.11,-2.47 184.63,-7.38 49.56,-4.5 78.62,-9.8 87.2,-14.74 8.22,-5.33 14.74,-15.55 18.84,-30.29 4.5,-14.71 8.19,-40.93 11.46,-78.58l4.95 -74.11 9.42 -9.81 55.23 0 9.85 9.81c-1.66,87.2 -3.7,174.82 -6.13,262.43l6.13 270.2 -9.85 9.42 -55.23 0 -9.42 -9.42 -8.61 -72.06c-6.95,-56.1 -12.28,-89.25 -15.55,-100.3 -2.86,-10.65 -10.65,-20.07 -22.12,-28.25 -11.46,-7.79 -41.34,-14.32 -89.23,-19.25 -47.91,-4.49 -113.81,-6.95 -197.75,-6.95 -46.66,0 -117.49,2.04 -212.46,6.13 -4.09,67.16 -6.13,178.91 -6.13,335.7 0,167.87 2.04,291.5 6.13,370.48l220.65 0c194.46,0 315.67,-2.43 364.76,-6.95 48.72,-4.9 94.99,-16.78 139.19,-34.78 6.99,-18.44 18.84,-61.01 35.24,-127.73 16.37,-67.16 25.79,-108.93 28.22,-125.67l11.88 -8.22 57.71 0 9.42 8.22c-6.95,34.35 -14.32,94.56 -20.87,180.11 -6.95,85.57 -10.24,158.83 -10.24,219.43l-8.6 9.42c-152.71,-4.5 -352.47,-6.95 -599.35,-6.95l-326.27 -2.47c-76.13,0 -155.15,3.29 -237.44,9.42l-9.83 -9.42 0 -39.71 9.83 -11.85c47.09,-24.16 74.11,-38.91 80.64,-45.05 6.99,-5.72 12.71,-75.72 16.8,-210.01 4.52,-133.88 6.56,-235.82 6.56,-306.22l0 -440.11 -0.81 -272.24c0,-59.34 -0.85,-107.66 -2.48,-144.51 -1.61,-37.26 -4.5,-63.86 -8.6,-79.83 -4.09,-15.94 -8.61,-27.42 -13.51,-33.55 -5.33,-6.56 -13.91,-11.88 -25.36,-16.4 -11.47,-4.47 -31.54,-8.19 -59.37,-11.46l-91.29 -6.95 -9.42 -8.61 0 -59.75zm-165.4 1032.45l0 36.06 -4.93 14.32 -58.94 34.78c-14.32,9.02 -22.5,15.55 -24.97,20.5 -2.45,4.9 -5.33,28.63 -9.01,71.22 -3.7,43 -5.33,94.99 -5.33,156.79 0,69.59 4.09,144.94 13.1,226.38l-7.35 12.28c-219.05,83.94 -444.2,125.67 -675.1,125.67 -177.66,0 -337.74,-33.55 -481.02,-100.71 -142.87,-67.13 -256.69,-166.6 -340.62,-298.41 -83.91,-131.86 -125.67,-288.64 -125.67,-470.42 0,-276.33 94.15,-496.59 283.29,-659.51 189.14,-162.94 436.02,-244.81 741,-244.81 223.52,0 424.94,38.07 603.03,114.22l8.61 13.08c-14.74,53.65 -31.54,165.83 -50.38,336.94l-9.83 8.61 -55.24 0 -9.42 -9.85 -6.13 -126.91c-2.48,-41.77 -4.95,-65.89 -7.81,-73.27 -2.84,-7.36 -11.46,-16.78 -25.77,-28.25 -14.33,-11.46 -51.18,-29.87 -110.95,-55.26 -59.35,-24.98 -119.15,-43.39 -179.32,-54.85 -59.76,-11.9 -124.03,-17.6 -192.8,-17.6 -146.57,0 -275.96,30.29 -388.94,91.29 -112.59,60.59 -197.73,149.41 -254.64,265.68 -57.31,116.26 -85.96,245.65 -85.96,387.69 0,147.37 31.11,284.12 92.52,411.03 61.42,126.5 149.85,225.54 264.88,296.8 115.45,71.22 249.31,106.84 402.01,106.84 66.32,0 133.88,-6.56 203.08,-20.07 69.17,-13.08 126.07,-31.49 171.11,-55.65 6.95,-25.39 10.67,-76.97 10.67,-154.75l0 -133.06c0,-63.03 -3.71,-102.35 -11.9,-118.29 -8.17,-15.57 -27.83,-26.64 -59.35,-32.77 -31.51,-6.53 -99.9,-10.62 -204.7,-11.85l-10.65 -11.08 0 -52.81 10.65 -10.65 73.31 2.48c125.67,4.08 228.01,5.74 307.02,5.74 45.43,0 112.59,-2.04 200.22,-6.99l12.26 9.42zm-3654.6 663.22l-10.65 -9.42 0 -62.21 10.65 -9.85c58.14,-0.82 95.81,-3.67 112.59,-8.99 16.8,-4.91 31.92,-15.57 45.02,-31.11 13.12,-15.57 39.71,-66.73 79.85,-152.7l126.07 -273.49 326.28 -738.94c61.41,-144.91 122.4,-289.42 183.42,-434.36l77.78 0 512.15 1204.42 68.36 160.5c20.07,45.84 43,95.38 69.2,149 25.79,53.22 43.77,85.14 53.62,94.56 10.24,9.42 22.5,17.21 37.25,22.12 14.74,5.33 47.91,8.17 99.1,8.99l9.42 9.85 0 62.21 -9.42 9.42c-84.76,-6.95 -161.31,-10.65 -229.29,-10.65 -132.63,4.09 -265.26,7.79 -397.92,10.65l-9.81 -9.42 0 -62.21 9.81 -9.85c89.66,-1.63 145.37,-5.33 167.87,-11.47 22.5,-5.7 33.58,-19.64 33.58,-41.34 0,-17.6 -5.75,-40.53 -16.8,-69.59l-147.37 -365.57 -694.75 0 -130.59 307.02c-23.34,55.28 -34.81,95.41 -34.81,121.19 0,20.07 10.65,34.78 32.35,44.2 21.7,9.85 76.15,14.74 163.35,15.57l10.65 9.85 0 62.21 -9.83 9.42c-103.14,-6.13 -193.23,-9.42 -271.01,-9.42 -88.02,0 -176.45,3.29 -266.11,9.42zm546.95 -672.64l606.71 0 -300.91 -723.38 -305.8 723.38zm13202.33 -1586.26l-5.06 5.6c-36.67,-2.24 -93.48,-3.37 -170.17,-3.37 -76.35,0 -132.92,1.13 -169.59,3.37l-5.1 -5.6 0 -36.87 5.65 -5.46c37.41,-2.27 58.84,-4.16 64.3,-5.65 10.72,-2.81 16.91,-9.57 18.8,-20.28 4.7,-26.55 7.13,-83.3 7.13,-170.76l0 -291.44c0,-87.43 -2.43,-144.41 -7.13,-170.73 -1.89,-10.72 -8.09,-17.51 -18.8,-20.51 -5.46,-1.3 -26.89,-3.19 -64.3,-5.42l-5.65 -5.46 0 -37.44 5.65 -5.08c35.16,2.28 91.73,3.39 169.61,3.39 77.45,0 133.86,-1.1 169.03,-3.39l5.62 5.08 0 37.44 -5.62 5.46c-37.41,2.24 -58.88,4.13 -64.3,5.42 -10.72,3.01 -16.95,9.8 -18.8,20.51 -4.7,26.32 -7.15,83.3 -7.15,170.73l0 291.44c0,87.46 2.45,144.22 7.15,170.76 1.86,10.72 8.09,17.47 18.8,20.28 5.42,1.5 26.89,3.39 64.3,5.65l5.62 5.46 0 36.87zm-410.49 0l-5.42 5.6c-2.66,0 -9.62,-0.18 -20.87,-0.54 -50.41,-1.89 -81.81,-2.83 -94.22,-2.83 -18.8,0 -48.52,1.13 -89.32,3.37 -1.53,-8.83 -8.46,-23.5 -20.87,-44.17l-136.69 -228.11 -61.13 -93.06c-7.69,-11.28 -18.61,-22.57 -32.53,-33.65l6.03 -18.61c8.45,0.35 14.65,0.54 18.8,0.54 35.91,0 64.3,-5.8 84.8,-17.11 18.8,-10.32 36.11,-28.19 51.89,-53.98 15.63,-25.76 23.52,-56.41 23.52,-91.93 0,-62.06 -23.13,-103.99 -69.41,-125.63 -21.98,-10.32 -54.13,-15.38 -96.25,-15.38 -18.44,0 -36.11,1.3 -53.02,4.32 -3.58,35.91 -5.46,97.39 -5.46,184.07l0 288.05c0,87.46 2.43,144.22 7.13,170.76 1.89,10.72 8.09,17.47 18.8,20.28 5.46,1.5 26.89,3.39 64.5,5.65l5.46 5.46 0 36.87 -4.9 5.6c-36.83,-2.24 -93.43,-3.37 -169.79,-3.37 -78.98,0 -135.59,1.13 -169.61,3.37l-5.42 -5.06 0 -37.41 5.42 -5.46c37.44,-2.27 58.88,-4.16 64.5,-5.65 10.55,-2.81 16.75,-9.57 18.64,-20.28 4.87,-26.55 7.15,-83.3 7.15,-170.76l0 -291.44c0,-87.43 -2.28,-144.41 -7.15,-170.73 -1.89,-10.72 -8.09,-17.51 -18.64,-20.51 -5.62,-1.3 -27.05,-3.19 -64.5,-5.42l-5.42 -5.46 0 -37.44 5.42 -5.08c35.91,2.28 92.52,3.39 169.61,3.39 44.76,0 81.23,-0.56 109.06,-1.69 55.47,-2.24 97.04,-3.37 124.48,-3.37 63.56,0 110.19,5.84 139.91,17.11 40.04,15.42 66.93,41.57 80.47,78.24 6.59,18.01 9.98,39.28 9.98,63.91 0,99.85 -56.21,170.73 -168.49,212.67 18.26,30.82 37.8,62.03 58.3,93.64l84.8 130.47c50,77.1 83.3,121.11 99.66,131.82 8.48,5.46 20.3,8.09 35.37,8.09l5.42 5.65 0 35.17zm-816.44 0l-4.87 5.6c-81.61,-2.24 -130.69,-3.37 -147.63,-3.37 -67.49,0 -130.29,1.13 -188.4,3.37l-4.9 -5.6 0 -34.63 5.46 -6.2 47.96 -2.63c20.1,-1.13 30.28,-8.28 30.28,-21.43 0,-7.69 -5.06,-25 -15.43,-51.89l-44.56 -116.21c-50.76,-0.74 -102.48,-1.13 -155.49,-1.13 -28.6,0 -71.09,0.39 -127.68,1.13l-24.26 67.13c-18.43,51.15 -27.65,83.1 -27.65,95.91 0,13.89 8.65,22.17 25.95,24.8 9.58,1.5 28.22,3.02 56.21,4.32l5.46 5.65 0 35.17 -5.46 5.6c-67.87,-2.24 -111.69,-3.37 -131.03,-3.37 -15.04,0 -52.48,1.13 -111.88,3.37l-5.46 -5.06 0 -35.72 6.02 -5.65c37.79,-2.07 61.11,-9.58 69.56,-22.57 8.66,-12.77 41.17,-89.32 97.42,-229.57l143.64 -359.73c10.72,-27.99 26.89,-69.92 48.52,-126.17l78.24 0 291.98 686.89c11.31,26.15 21.63,40.83 30.85,44 12.05,4.52 29.52,6.79 52.29,6.79l4.87 6.02 0 35.17zm-349.16 -296.37l-117.88 -288.61 -112.82 288.61c30.06,1.13 69.2,1.71 117.33,1.71 46.63,0 84.4,-0.58 113.38,-1.71zm-543.23 114.53c-8.07,53.78 -12.02,114.32 -12.02,181.84l-5.64 5.6 -400.33 -3.37c-66.93,0 -114.12,1.13 -141.59,3.37l-5.62 -5.6 0 -15.43 2.79 -6.59c27.07,-17.31 41.95,-28.02 44,-32.54 3.37,-6.56 5.46,-31.02 6.2,-73.13l1.53 -123.54 0 -279.23c0,-87.43 -2.27,-144.41 -7.15,-170.73 -1.87,-10.72 -8.09,-17.51 -18.64,-20.51 -5.6,-1.3 -27.05,-3.19 -64.5,-5.42l-5.42 -5.46 0 -37.44 5.42 -5.08c37.8,2.28 93.28,3.39 166.44,3.39 75.58,0 133.12,-1.1 172.42,-3.39l5.46 5.08 0 37.99 -5.46 4.91c-37.61,2.24 -59.04,4.13 -64.5,5.42 -10.72,3.01 -16.91,9.8 -18.8,20.51 -4.72,26.32 -7.15,83.3 -7.15,170.73l0 329.42c0,48.14 0.95,94.77 2.83,139.91l74.82 0c107.36,0 173,-4.16 197.26,-12.59 4.13,-1.5 6.95,-3.58 8.84,-6.21 3.57,-5.1 7.13,-15.98 10.52,-32.89l13.18 -68.46 5.46 -6.02 33.65 0 6 5.46zm-668.83 181.84l-4.87 5.6c-81.62,-2.24 -130.69,-3.37 -147.63,-3.37 -67.49,0 -130.29,1.13 -188.4,3.37l-4.9 -5.6 0 -34.63 5.46 -6.2 47.96 -2.63c20.1,-1.13 30.26,-8.28 30.26,-21.43 0,-7.69 -5.06,-25 -15.42,-51.89l-44.56 -116.21c-50.76,-0.74 -102.5,-1.13 -155.49,-1.13 -28.62,0 -71.09,0.39 -127.7,1.13l-24.26 67.13c-18.41,51.15 -27.63,83.1 -27.63,95.91 0,13.89 8.63,22.17 25.94,24.8 9.58,1.5 28.22,3.02 56.23,4.32l5.44 5.65 0 35.17 -5.44 5.6c-67.88,-2.24 -111.69,-3.37 -131.05,-3.37 -15.04,0 -52.48,1.13 -111.87,3.37l-5.46 -5.06 0 -35.72 6 -5.65c37.8,-2.07 61.13,-9.58 69.56,-22.57 8.68,-12.77 41.19,-89.32 97.44,-229.57l143.64 -359.73c10.72,-27.99 26.89,-69.92 48.5,-126.17l78.24 0 292 686.89c11.29,26.15 21.61,40.83 30.85,44 12.05,4.52 29.52,6.79 52.29,6.79l4.87 6.02 0 35.17zm-349.18 -296.37l-117.88 -288.61 -112.82 288.61c30.08,1.13 69.21,1.71 117.34,1.71 46.63,0 84.4,-0.58 113.36,-1.71zm-560.13 44c0,60.75 -17.31,114.15 -51.91,160.39 -30.06,40.83 -69.56,71.09 -118.46,90.85 -44.76,18.41 -98.14,27.63 -160.21,27.63 -77.1,0 -152.86,-17.67 -226.94,-52.84l-6.59 -12.21c10.17,-42.11 15.43,-102.29 15.43,-180.13l5.46 -5.46 35.16 0 5.08 5.46 0 12.75c0,20.53 2.24,47.58 6.56,81.44 13.18,23.49 36.85,43.82 71.09,60.54 35.52,17.67 72.77,26.51 111.33,26.51 72.58,0 122.95,-25.38 150.77,-75.97 14.5,-26.13 21.63,-53.02 21.63,-81.02 0,-47.03 -19.74,-80.67 -59.04,-100.81 -19.35,-9.98 -50.76,-18.23 -94.22,-24.82 -97.95,-15.04 -162.44,-34.02 -193.3,-56.79 -46.63,-34.4 -69.94,-87.82 -69.94,-160.21 0,-75.41 25.39,-135.39 75.99,-180.15 53.58,-46.99 128.21,-70.5 223.75,-70.5 85.93,0 155.29,13.72 208.14,41.37l3.76 13.15c-8.63,43.66 -14.09,96.29 -15.78,157.58l-6.2 5.46 -34.63 0 -5.64 -5.46c-0.92,-44.17 -2.79,-72.75 -5.42,-85.93 -11.31,-17.27 -31.25,-31.95 -59.44,-44.17 -30.08,-12.41 -61.47,-18.64 -94.22,-18.64 -49.26,0 -88.17,12.98 -116.75,39.12 -26.89,24.62 -40.27,56.41 -40.27,95.32 0,42.13 15.24,73.18 45.69,93.08 19.74,12.79 66.59,25 140.48,36.85 7.71,1.15 29.14,4.72 64.5,11.11 21.6,3.58 41.54,8.84 59.99,15.78 37.02,14.1 65.04,35.37 83.65,63.96 20.3,31.21 30.47,70.12 30.47,116.75zm-657.37 252.37l-4.88 5.6c-81.61,-2.24 -130.67,-3.37 -147.63,-3.37 -67.47,0 -130.29,1.13 -188.38,3.37l-4.91 -5.6 0 -34.63 5.46 -6.2 47.96 -2.63c20.12,-1.13 30.28,-8.28 30.28,-21.43 0,-7.69 -5.06,-25 -15.43,-51.89l-44.54 -116.21c-50.77,-0.74 -102.5,-1.13 -155.49,-1.13 -28.62,0 -71.09,0.39 -127.7,1.13l-24.26 67.13c-18.41,51.15 -27.65,83.1 -27.65,95.91 0,13.89 8.65,22.17 25.95,24.8 9.58,1.5 28.22,3.02 56.21,4.32l5.46 5.65 0 35.17 -5.46 5.6c-67.87,-2.24 -111.69,-3.37 -131.03,-3.37 -15.04,0 -52.48,1.13 -111.88,3.37l-5.46 -5.06 0 -35.72 6.02 -5.65c37.8,-2.07 61.11,-9.58 69.56,-22.57 8.66,-12.77 41.17,-89.32 97.42,-229.57l143.64 -359.73c10.72,-27.99 26.89,-69.92 48.52,-126.17l78.24 0 291.98 686.89c11.31,26.15 21.63,40.83 30.85,44 12.05,4.52 29.52,6.79 52.29,6.79l4.88 6.02 0 35.17zm-349.18 -296.37l-117.88 -288.61 -112.82 288.61c30.06,1.13 69.2,1.71 117.33,1.71 46.65,0 84.4,-0.58 113.38,-1.71zm-560.15 44c0,60.75 -17.31,114.15 -51.89,160.39 -30.08,40.83 -69.56,71.09 -118.48,90.85 -44.74,18.41 -98.14,27.63 -160.19,27.63 -77.1,0 -152.86,-17.67 -226.94,-52.84l-6.59 -12.21c10.16,-42.11 15.42,-102.29 15.42,-180.13l5.46 -5.46 35.17 0 5.06 5.46 0 12.75c0,20.53 2.24,47.58 6.56,81.44 13.18,23.49 36.87,43.82 71.09,60.54 35.54,17.67 72.78,26.51 111.33,26.51 72.58,0 122.96,-25.38 150.79,-75.97 14.48,-26.13 21.63,-53.02 21.63,-81.02 0,-47.03 -19.74,-80.67 -59.04,-100.81 -19.36,-9.98 -50.76,-18.23 -94.22,-24.82 -97.95,-15.04 -162.44,-34.02 -193.3,-56.79 -46.63,-34.4 -69.95,-87.82 -69.95,-160.21 0,-75.41 25.39,-135.39 76,-180.15 53.58,-46.99 128.21,-70.5 223.75,-70.5 85.93,0 155.29,13.72 208.14,41.37l3.76 13.15c-8.65,43.66 -14.1,96.29 -15.78,157.58l-6.21 5.46 -34.62 0 -5.65 -5.46c-0.9,-44.17 -2.79,-72.75 -5.42,-85.93 -11.29,-17.27 -31.23,-31.95 -59.42,-44.17 -30.08,-12.41 -61.49,-18.64 -94.22,-18.64 -49.26,0 -88.17,12.98 -116.75,39.12 -26.89,24.62 -40.27,56.41 -40.27,95.32 0,42.13 15.24,73.18 45.69,93.08 19.74,12.79 66.57,25 140.48,36.85 7.69,1.15 29.13,4.72 64.5,11.11 21.6,3.58 41.54,8.84 59.98,15.78 37.03,14.1 65.06,35.37 83.66,63.96 20.3,31.21 30.46,70.12 30.46,116.75zm-689.12 0c0,60.75 -17.31,114.15 -51.89,160.39 -30.08,40.83 -69.58,71.09 -118.48,90.85 -44.76,18.41 -98.14,27.63 -160.21,27.63 -77.09,0 -152.86,-17.67 -226.94,-52.84l-6.59 -12.21c10.17,-42.11 15.43,-102.29 15.43,-180.13l5.46 -5.46 35.17 0 5.06 5.46 0 12.75c0,20.53 2.24,47.58 6.56,81.44 13.18,23.49 36.85,43.82 71.09,60.54 35.52,17.67 72.78,26.51 111.33,26.51 72.58,0 122.95,-25.38 150.79,-75.97 14.48,-26.13 21.61,-53.02 21.61,-81.02 0,-47.03 -19.74,-80.67 -59.04,-100.81 -19.35,-9.98 -50.76,-18.23 -94.2,-24.82 -97.95,-15.04 -162.44,-34.02 -193.3,-56.79 -46.65,-34.4 -69.95,-87.82 -69.95,-160.21 0,-75.41 25.39,-135.39 75.99,-180.15 53.58,-46.99 128.22,-70.5 223.75,-70.5 85.93,0 155.31,13.72 208.14,41.37l3.76 13.15c-8.63,43.66 -14.09,96.29 -15.78,157.58l-6.2 5.46 -34.62 0 -5.65 -5.46c-0.9,-44.17 -2.79,-72.75 -5.42,-85.93 -11.31,-17.27 -31.25,-31.95 -59.44,-44.17 -30.06,-12.41 -61.47,-18.64 -94.22,-18.64 -49.26,0 -88.17,12.98 -116.75,39.12 -26.89,24.62 -40.27,56.41 -40.27,95.32 0,42.13 15.24,73.18 45.69,93.08 19.76,12.79 66.59,25 140.5,36.85 7.69,1.15 29.13,4.72 64.5,11.11 21.6,3.58 41.54,8.84 59.98,15.78 37.02,14.1 65.04,35.37 83.66,63.96 20.28,31.21 30.46,70.12 30.46,116.75zm-657.37 252.37l-4.88 5.6c-81.61,-2.24 -130.67,-3.37 -147.63,-3.37 -67.47,0 -130.28,1.13 -188.38,3.37l-4.9 -5.6 0 -34.63 5.44 -6.2 47.98 -2.63c20.1,-1.13 30.26,-8.28 30.26,-21.43 0,-7.69 -5.06,-25 -15.42,-51.89l-44.56 -116.21c-50.76,-0.74 -102.5,-1.13 -155.49,-1.13 -28.62,0 -71.09,0.39 -127.7,1.13l-24.26 67.13c-18.41,51.15 -27.63,83.1 -27.63,95.91 0,13.89 8.63,22.17 25.94,24.8 9.58,1.5 28.22,3.02 56.21,4.32l5.46 5.65 0 35.17 -5.46 5.6c-67.87,-2.24 -111.67,-3.37 -131.03,-3.37 -15.04,0 -52.48,1.13 -111.88,3.37l-5.46 -5.06 0 -35.72 6.02 -5.65c37.8,-2.07 61.11,-9.58 69.56,-22.57 8.68,-12.77 41.17,-89.32 97.44,-229.57l143.62 -359.73c10.73,-27.99 26.89,-69.92 48.52,-126.17l78.24 0 291.98 686.89c11.31,26.15 21.63,40.83 30.85,44 12.05,4.52 29.52,6.79 52.29,6.79l4.88 6.02 0 35.17zm-349.18 -296.37l-117.88 -288.61 -112.82 288.61c30.08,1.13 69.2,1.71 117.34,1.71 46.63,0 84.4,-0.58 113.36,-1.71zm-530.46 -436.21l-5.6 5.46c-43.26,0 -67.72,11.65 -73.18,34.78 -2.99,12.75 -5.26,40.58 -6.56,83.65 -1.13,31.99 -1.69,78.04 -1.69,138.22l0 169.79c0,109.07 -21.43,186.92 -64.5,233.53 -56.99,61.7 -138.02,92.52 -243.49,92.52 -96.29,0 -171.32,-15.98 -225.28,-47.93 -45.5,-27.09 -75.21,-65.65 -89.32,-115.65 -8.83,-31.95 -13.15,-115.25 -13.15,-250.1l0 -142.14c0,-87.43 -2.47,-144.41 -7.15,-170.73 -1.87,-10.72 -8.09,-17.51 -18.8,-20.51 -5.46,-1.3 -26.89,-3.19 -64.3,-5.42l-5.64 -5.46 0 -36.87 5.64 -5.65c35.14,2.28 91.75,3.39 169.59,3.39 79.34,0 135.75,-1.1 169.03,-3.39l5.65 5.65 0 36.87 -5.65 5.46c-37.41,2.24 -58.84,4.13 -64.3,5.42 -10.72,3.01 -16.93,9.8 -18.8,20.51 -4.72,26.32 -7.15,83.3 -7.15,170.73l0 113.56c0,138.77 6.21,223.77 18.61,254.97 25.02,61.67 86.52,92.52 184.67,92.52 64.3,0 114.32,-15.78 150.43,-47.37 16.91,-15.04 28.57,-30.28 35.16,-45.69 6.57,-15.43 11.87,-39.3 15.43,-71.65 3.37,-30.06 5.06,-60.54 5.06,-91.39l0 -114.7c0,-96.11 -0.39,-161.9 -1.13,-197.06 -0.74,-33.1 -2.99,-54.54 -6.56,-64.5 -3.02,-7.35 -9.42,-13.17 -19.4,-17.13 -8.43,-3.37 -31.02,-6 -67.67,-8.23l-5.65 -5.46 0 -36.87 5.65 -5.65c31.95,2.28 64.69,3.39 98.52,3.39 25.36,0 74.08,-1.1 145.92,-3.39l5.6 5.65 0 36.87zm-888.07 732.58l-5.46 5.6c-36.46,-2.24 -92.87,-3.37 -169.77,-3.37 -78.6,0 -135.01,1.13 -169.63,3.37l-4.87 -5.06 0 -37.41 5.46 -5.46c37.41,-2.27 58.84,-4.16 64.5,-5.65 10.52,-2.81 16.91,-9.57 18.61,-20.28 4.9,-26.55 7.33,-83.3 7.33,-170.76l0 -372.5 -122.98 251.79c-6.95,13.92 -30.82,65.43 -71.65,154.39l-100.76 220.19 -36.87 0c-19.2,-45.5 -44.94,-102.86 -77.65,-172.45l-77.1 -163.58 -144.41 -300.1 0 382.27c0,87.46 2.43,144.22 7.15,170.76 1.87,10.72 8.09,17.47 18.8,20.28 5.46,1.5 26.89,3.39 64.5,5.65l5.46 5.46 0 37.41 -5.46 5.06c-42.32,-2.24 -81.62,-3.37 -117.9,-3.37 -42.31,0 -84.81,1.13 -127.3,3.37l-5.46 -5.06 0 -37.41 5.46 -5.46c37.41,-2.27 58.84,-4.16 64.5,-5.65 10.52,-2.81 16.73,-9.57 18.61,-20.28 4.91,-26.55 7.15,-83.3 7.15,-170.76l0 -291.44c0,-87.43 -2.24,-144.41 -7.15,-170.73 -1.87,-10.72 -8.09,-17.51 -18.61,-20.51 -5.65,-1.3 -27.09,-3.19 -64.5,-5.42l-5.46 -5.46 0 -37.44 5.46 -5.08c38.17,2.28 86.49,3.39 144.77,3.39 44.95,0 84.06,-1.1 117.34,-3.39 12.21,28.02 29.52,67.32 51.89,117.88l35.17 76 175.25 366.46 84.24 -170.93 131.63 -281.46c15.42,-33.28 30.46,-69.4 45.3,-107.96 41.37,2.28 69.4,3.39 83.68,3.39 72.04,0 127.12,-1.1 165.27,-3.39l5.46 5.08 0 37.99 -5.46 4.91c-37.41,2.24 -59.04,4.13 -64.5,5.42 -10.72,3.01 -16.91,9.8 -18.8,20.51 -4.67,26.32 -7.13,83.3 -7.13,170.73l0 291.44c0,87.46 2.47,144.22 7.13,170.76 1.89,10.72 8.09,17.47 18.8,20.28 5.46,1.5 27.09,3.39 64.5,5.65l5.46 5.46 0 36.87zm-1410.25 0l-5.46 5.6c-36.46,-2.24 -92.87,-3.37 -169.77,-3.37 -78.6,0 -134.99,1.13 -169.63,3.37l-4.87 -5.06 0 -37.41 5.46 -5.46c37.41,-2.27 58.84,-4.16 64.5,-5.65 10.52,-2.81 16.91,-9.57 18.61,-20.28 4.9,-26.55 7.33,-83.3 7.33,-170.76l0 -372.5 -122.98 251.79c-6.95,13.92 -30.82,65.43 -71.63,154.39l-100.77 220.19 -36.87 0c-19.2,-45.5 -44.94,-102.86 -77.65,-172.45l-77.1 -163.58 -144.41 -300.1 0 382.27c0,87.46 2.43,144.22 7.15,170.76 1.87,10.72 8.09,17.47 18.8,20.28 5.46,1.5 26.89,3.39 64.5,5.65l5.46 5.46 0 37.41 -5.46 5.06c-42.32,-2.24 -81.62,-3.37 -117.88,-3.37 -42.32,0 -84.83,1.13 -127.32,3.37l-5.46 -5.06 0 -37.41 5.46 -5.46c37.43,-2.27 58.86,-4.16 64.5,-5.65 10.52,-2.81 16.73,-9.57 18.61,-20.28 4.91,-26.55 7.15,-83.3 7.15,-170.76l0 -291.44c0,-87.43 -2.24,-144.41 -7.15,-170.73 -1.87,-10.72 -8.09,-17.51 -18.61,-20.51 -5.64,-1.3 -27.07,-3.19 -64.5,-5.42l-5.46 -5.46 0 -37.44 5.46 -5.08c38.17,2.28 86.49,3.39 144.77,3.39 44.95,0 84.06,-1.1 117.34,-3.39 12.21,28.02 29.52,67.32 51.89,117.88l35.17 76 175.25 366.46 84.24 -170.93 131.63 -281.46c15.42,-33.28 30.46,-69.4 45.3,-107.96 41.37,2.28 69.4,3.39 83.7,3.39 72.03,0 127.1,-1.1 165.25,-3.39l5.46 5.08 0 37.99 -5.46 4.91c-37.41,2.24 -59.04,4.13 -64.5,5.42 -10.72,3.01 -16.91,9.8 -18.8,20.51 -4.67,26.32 -7.13,83.3 -7.13,170.73l0 291.44c0,87.46 2.47,144.22 7.13,170.76 1.89,10.72 8.09,17.47 18.8,20.28 5.46,1.5 27.09,3.39 64.5,5.65l5.46 5.46 0 36.87zm-1133.1 0l-5.06 5.6c-36.67,-2.24 -93.48,-3.37 -170.19,-3.37 -76.35,0 -132.92,1.13 -169.58,3.37l-5.1 -5.6 0 -36.87 5.64 -5.46c37.41,-2.27 58.86,-4.16 64.3,-5.65 10.72,-2.81 16.93,-9.57 18.8,-20.28 4.72,-26.55 7.15,-83.3 7.15,-170.76l0 -291.44c0,-87.43 -2.43,-144.41 -7.15,-170.73 -1.87,-10.72 -8.09,-17.51 -18.8,-20.51 -5.44,-1.3 -26.89,-3.19 -64.3,-5.42l-5.64 -5.46 0 -37.44 5.64 -5.08c35.17,2.28 91.75,3.39 169.63,3.39 77.45,0 133.86,-1.1 169.03,-3.39l5.62 5.08 0 37.44 -5.62 5.46c-37.41,2.24 -58.88,4.13 -64.3,5.42 -10.72,3.01 -16.95,9.8 -18.8,20.51 -4.72,26.32 -7.15,83.3 -7.15,170.73l0 291.44c0,87.46 2.43,144.22 7.15,170.76 1.86,10.72 8.09,17.47 18.8,20.28 5.42,1.5 26.89,3.39 64.3,5.65l5.62 5.46 0 36.87zm-436.41 -181.84c-8.09,53.78 -12.02,114.32 -12.02,181.84l-5.65 5.6 -400.32 -3.37c-66.95,0 -114.12,1.13 -141.6,3.37l-5.62 -5.6 0 -15.43 2.79 -6.59c27.09,-17.31 41.96,-28.02 44,-32.54 3.39,-6.56 5.46,-31.02 6.21,-73.13l1.53 -123.54 0 -279.23c0,-87.43 -2.28,-144.41 -7.15,-170.73 -1.89,-10.72 -8.09,-17.51 -18.64,-20.51 -5.62,-1.3 -27.05,-3.19 -64.5,-5.42l-5.42 -5.46 0 -37.44 5.42 -5.08c37.8,2.28 93.26,3.39 166.44,3.39 75.58,0 133.12,-1.1 172.4,-3.39l5.46 5.08 0 37.99 -5.46 4.91c-37.61,2.24 -59.04,4.13 -64.5,5.42 -10.72,3.01 -16.91,9.8 -18.8,20.51 -4.7,26.32 -7.13,83.3 -7.13,170.73l0 329.42c0,48.14 0.94,94.77 2.83,139.91l74.82 0c107.36,0 173,-4.16 197.26,-12.59 4.13,-1.5 6.95,-3.58 8.83,-6.21 3.58,-5.1 7.15,-15.98 10.52,-32.89l13.2 -68.46 5.46 -6.02 33.65 0 6 5.46zm-711.71 -557.34c0,4.31 -1.3,13.35 -3.76,26.89l-6.56 35.36 -31.39 163 -37.61 0 -26.35 -163c-1.13,-6.39 -3.37,-18.05 -6.59,-35.36 -2.63,-13.91 -3.93,-22.93 -3.93,-26.89 0,-16.17 5.65,-29.91 17.11,-41.19 11.28,-11.09 25.21,-16.72 41.37,-16.72 16.17,0 29.68,5.62 40.99,16.72 11.08,11.28 16.72,25.02 16.72,41.19zm-213.23 739.17l-4.87 5.6c-81.61,-2.24 -130.69,-3.37 -147.63,-3.37 -67.49,0 -130.29,1.13 -188.4,3.37l-4.9 -5.6 0 -34.63 5.46 -6.2 47.96 -2.63c20.1,-1.13 30.28,-8.28 30.28,-21.43 0,-7.69 -5.08,-25 -15.43,-51.89l-44.56 -116.21c-50.76,-0.74 -102.48,-1.13 -155.49,-1.13 -28.6,0 -71.09,0.39 -127.7,1.13l-24.24 67.13c-18.43,51.15 -27.65,83.1 -27.65,95.91 0,13.89 8.65,22.17 25.95,24.8 9.58,1.5 28.22,3.02 56.21,4.32l5.46 5.65 0 35.17 -5.46 5.6c-67.87,-2.24 -111.69,-3.37 -131.03,-3.37 -15.04,0 -52.48,1.13 -111.88,3.37l-5.46 -5.06 0 -35.72 6.02 -5.65c37.79,-2.07 61.11,-9.58 69.56,-22.57 8.66,-12.77 41.17,-89.32 97.42,-229.57l143.64 -359.73c10.72,-27.99 26.89,-69.92 48.52,-126.17l78.24 0 291.98 686.89c11.31,26.15 21.63,40.83 30.85,44 12.05,4.52 29.52,6.79 52.29,6.79l4.87 6.02 0 35.17zm-349.16 -296.37l-117.9 -288.61 -112.81 288.61c30.06,1.13 69.2,1.71 117.33,1.71 46.63,0 84.4,-0.58 113.38,-1.71zm-420.27 -475.35c-4.52,27.09 -6.79,55.31 -7.15,84.24l-1.13 91.96 -5.46 5.62 -34.78 0 -6.02 -5.06c-1.87,-47.03 -3.96,-74.46 -6.03,-82.55 -4.52,-14.65 -16.17,-23.32 -35.34,-25.95 -7.33,-1.13 -41.91,-1.69 -103.58,-1.69l-73.73 0c-0.74,13 -1.13,63.96 -1.13,153.26l0 312.87c0,87.46 2.43,144.22 7.15,170.76 1.89,10.72 8.09,17.47 18.8,20.28 5.46,1.5 26.89,3.39 64.3,5.65l5.65 5.46 0 36.87 -5.65 5.6c-36.28,-2.24 -92.88,-3.37 -169.59,-3.37 -78.58,0 -135.19,1.13 -169.61,3.37l-5.06 -5.06 0 -37.41 5.64 -5.46c37.43,-2.27 58.86,-4.16 64.3,-5.65 10.72,-2.81 16.93,-9.57 18.8,-20.28 4.72,-26.55 7.15,-83.3 7.15,-170.76l0 -312.87c0,-90.83 -0.58,-141.78 -1.69,-153.26l-78.78 0c-65.63,0 -103.98,2.09 -115.09,6.21 -5.82,2.07 -9.98,4.9 -12.02,8.09 -3.42,6 -6.21,17.65 -8.28,35.36 -2.63,19.36 -4.32,39.46 -5.06,59.98l-5.46 5.62 -34.81 0 -6.02 -5.62 -1.13 -94.2c-0.36,-26.35 -2.43,-53.78 -6.56,-82l5.06 -5.62c21.63,3.73 100.61,5.62 236.75,5.62l223.16 0c125.63,0 204.6,-1.89 236.95,-5.62l5.46 5.62zm13041.79 -1311.47l-6.23 5.49c-37.61,2.27 -59.14,4.16 -64.6,5.49 -10.78,3.02 -17.03,9.81 -18.9,20.6 -4.72,26.43 -7.18,83.65 -7.18,171.5l0 224.57c0,165.65 2.47,273.7 7.18,323.74l-7.18 5.1c-41.73,-6.97 -73.29,-12.08 -94.63,-14.89 -98.8,-111.08 -267.64,-313.76 -506.4,-607.66l0 361.92c0,87.8 2.47,144.87 7.18,171.5 1.87,10.75 8.12,17.57 18.9,20.4 5.46,1.53 27.17,3.4 64.78,5.67l5.46 5.46 0 37.61 -5.46 5.11c-42.51,-2.28 -81.99,-3.42 -118.43,-3.42 -42.52,0 -84.99,1.13 -127.89,3.42l-5.46 -5.11 0 -37.61 5.46 -5.46c37.61,-2.27 59.34,-4.14 64.79,-5.67 10.78,-2.83 17.01,-9.65 18.7,-20.4 4.9,-26.63 7.36,-83.7 7.36,-171.5l0 -292.77c0,-87.85 -2.47,-145.07 -7.36,-171.5 -1.69,-10.78 -7.92,-17.57 -18.7,-20.6 -5.46,-1.33 -27.19,-3.22 -64.79,-5.49l-5.46 -5.49 0 -37.57 5.46 -5.1c35.14,2.27 68.39,3.4 100.12,3.4 49.85,0 91.22,-1.13 124.1,-3.4 132.79,177.19 288.81,367.01 468.03,569.5l0 -323.75c0,-87.85 -2.43,-145.07 -7.18,-171.5 -1.87,-10.78 -8.12,-17.57 -18.67,-20.6 -5.67,-1.33 -27.2,-3.22 -64.78,-5.49l-5.69 -5.49 0 -37.57 5.69 -5.1c41.17,2.27 80.44,3.4 117.85,3.4 47.6,0 90.29,-1.13 128.24,-3.4l5.69 5.1 0 37.57zm-934.77 735.9l-4.95 5.69c-81.97,-2.28 -131.26,-3.42 -148.24,-3.42 -67.82,0 -130.92,1.13 -189.27,3.42l-4.9 -5.69 0 -34.75 5.44 -6.25 48.18 -2.63c20.23,-1.13 30.42,-8.32 30.42,-21.53 0,-7.76 -5.1,-25.13 -15.5,-52.15l-44.77 -116.72c-50.99,-0.74 -102.91,-1.13 -156.21,-1.13 -28.7,0 -71.38,0.39 -128.24,1.13l-24.36 67.42c-18.51,51.38 -27.76,83.5 -27.76,96.35 0,13.97 8.7,22.29 26.07,24.92 9.62,1.51 28.32,3.01 56.48,4.34l5.46 5.69 0 35.31 -5.46 5.69c-68.2,-2.28 -112.2,-3.42 -131.66,-3.42 -15.09,0 -52.7,1.13 -112.39,3.42l-5.46 -5.11 0 -35.88 6.05 -5.69c37.95,-2.07 61.37,-9.63 69.89,-22.67 8.66,-12.82 41.34,-89.73 97.81,-230.61l144.31 -361.36c10.75,-28.12 27.02,-70.23 48.75,-126.71l78.55 0 293.36 689.98c11.32,26.27 21.68,40.98 30.93,44.2 12.11,4.54 29.68,6.79 52.52,6.79l4.95 6.07 0 35.31zm-350.78 -297.67l-118.44 -289.94 -113.33 289.94c30.23,1.13 69.53,1.68 117.88,1.68 46.83,0 84.8,-0.54 113.89,-1.68zm-557.76 20.58l-5.49 6.05c-22.83,5.49 -36.24,13.22 -39.84,22.86 -3.78,9.8 -5.65,47.22 -5.65,112.2 0,31.34 1.5,62.33 4.5,92.92 -123.14,46.47 -234.95,69.69 -335.28,69.69 -132.2,0 -239.1,-37.02 -320.7,-110.87 -81.81,-74.05 -122.58,-174.92 -122.58,-302.58 0,-166.24 72.16,-284.85 216.24,-355.67 66.12,-32.51 149.98,-48.75 251.79,-48.75 59.14,0 118.82,6.44 179.46,19.3 49.66,10.75 88.96,22.83 117.85,36.64l4.91 9.8c-9.62,32.51 -17.57,88.99 -23.82,169.43l-6.03 5.49 -33.22 0 -5.49 -5.49c0,-6.99 -0.76,-21.53 -2.28,-43.41 -1.48,-21.93 -3.37,-37.43 -5.46,-46.29 -16.26,-22.11 -44.03,-40.83 -83.14,-56.28 -41.91,-16.27 -87.41,-24.39 -136.16,-24.39 -130.52,0 -220.61,52.71 -270.48,158.09 -22.86,48.75 -34.37,105.23 -34.37,169.43 0,102.6 27.38,187.58 81.97,255.2 56.87,70.09 130.72,105.03 221.94,105.03 48.16,0 94.99,-10.4 139.96,-30.98 2.43,-25.89 3.76,-61.19 3.76,-106.16 0,-36.64 -1.33,-58.71 -3.76,-66.49 -2.27,-5.84 -9.25,-10.19 -21.17,-12.66 -9.81,-2.24 -40.98,-5.1 -93.49,-8.32l-6.05 -5.65 0 -34.75 6.05 -5.49c53.65,1.33 109.57,1.89 168.28,1.53 34.01,-0.39 84.63,-0.94 152.25,-1.53l5.49 5.49 0 26.63zm-931.96 94.45c-8.15,54.01 -12.11,114.83 -12.11,182.64l-5.64 5.69 -402.16 -3.42c-67.23,0 -114.63,1.13 -142.21,3.42l-5.67 -5.69 0 -15.5 2.81 -6.59c27.22,-17.37 42.13,-28.16 44.2,-32.66 3.42,-6.62 5.49,-31.18 6.25,-73.5l1.53 -124.08 0 -280.49c0,-87.85 -2.28,-145.07 -7.18,-171.5 -1.89,-10.78 -8.12,-17.57 -18.7,-20.6 -5.65,-1.33 -27.19,-3.22 -64.79,-5.49l-5.49 -5.49 0 -37.57 5.49 -5.1c37.97,2.27 93.69,3.4 167.16,3.4 75.95,0 133.73,-1.13 173.23,-3.4l5.47 5.1 0 38.17 -5.47 4.9c-37.77,2.27 -59.3,4.16 -64.79,5.49 -10.78,3.02 -17.01,9.81 -18.9,20.6 -4.72,26.43 -7.18,83.65 -7.18,171.5l0 330.92c0,48.36 0.95,95.18 2.86,140.53l75.15 0c107.86,0 173.79,-4.16 198.16,-12.67 4.13,-1.5 6.99,-3.57 8.88,-6.23 3.57,-5.11 7.18,-16.04 10.59,-33.04l13.22 -68.79 5.46 -6.03 33.81 0 6.07 5.49zm-689.45 182.64l-5.1 5.69c-36.83,-2.28 -93.85,-3.42 -170.93,-3.42 -76.69,0 -133.53,1.13 -170.4,3.42l-5.1 -5.69 0 -37.03 5.69 -5.46c37.57,-2.27 59.11,-4.14 64.6,-5.67 10.78,-2.83 17.01,-9.65 18.9,-20.4 4.7,-26.63 7.17,-83.7 7.17,-171.5l0 -292.77c0,-87.85 -2.47,-145.07 -7.17,-171.5 -1.89,-10.78 -8.12,-17.57 -18.9,-20.6 -5.49,-1.33 -27.02,-3.22 -64.6,-5.49l-5.69 -5.49 0 -37.57 5.69 -5.1c35.34,2.27 92.16,3.4 170.37,3.4 77.81,0 134.49,-1.13 169.81,-3.4l5.65 5.1 0 37.57 -5.65 5.49c-37.61,2.27 -59.14,4.16 -64.58,5.49 -10.78,3.02 -17.03,9.81 -18.9,20.6 -4.72,26.43 -7.18,83.65 -7.18,171.5l0 292.77c0,87.8 2.47,144.87 7.18,171.5 1.87,10.75 8.12,17.57 18.9,20.4 5.44,1.53 26.97,3.4 64.58,5.67l5.65 5.46 0 37.03zm-412.35 0l-5.44 5.69c-2.66,0 -9.65,-0.2 -20.99,-0.59 -50.63,-1.89 -82.17,-2.83 -94.63,-2.83 -18.9,0 -48.72,1.13 -89.73,3.42 -1.5,-8.91 -8.48,-23.62 -20.96,-44.4l-137.33 -229.13 -61.39 -93.49c-7.73,-11.32 -18.7,-22.67 -32.66,-33.81l6.03 -18.7c8.51,0.39 14.74,0.56 18.9,0.56 36.08,0 64.6,-5.85 85.19,-17.18 18.87,-10.4 36.28,-28.32 52.12,-54.21 15.68,-25.89 23.6,-56.67 23.6,-92.36 0,-62.36 -23.23,-104.47 -69.69,-126.17 -22.11,-10.39 -54.39,-15.5 -96.71,-15.5 -18.51,0 -36.28,1.3 -53.25,4.32 -3.6,36.08 -5.49,97.85 -5.49,184.91l0 289.4c0,87.8 2.47,144.87 7.18,171.5 1.87,10.75 8.12,17.57 18.9,20.4 5.47,1.53 27.01,3.4 64.78,5.67l5.49 5.46 0 37.03 -4.93 5.69c-37.03,-2.28 -93.85,-3.42 -170.56,-3.42 -79.31,0 -136.18,1.13 -170.37,3.42l-5.49 -5.11 0 -37.61 5.49 -5.46c37.61,-2.27 59.14,-4.14 64.79,-5.67 10.59,-2.83 16.81,-9.65 18.7,-20.4 4.9,-26.63 7.17,-83.7 7.17,-171.5l0 -292.77c0,-87.85 -2.27,-145.07 -7.17,-171.5 -1.89,-10.78 -8.12,-17.57 -18.7,-20.6 -5.65,-1.33 -27.19,-3.22 -64.79,-5.49l-5.49 -5.49 0 -37.57 5.49 -5.1c36.08,2.27 92.95,3.4 170.37,3.4 44.97,0 81.61,-0.58 109.57,-1.71 55.7,-2.25 97.47,-3.39 125.03,-3.39 63.86,0 110.68,5.85 140.52,17.18 40.24,15.5 67.26,41.73 80.87,78.57 6.59,18.15 10.01,39.5 10.01,64.23 0,100.28 -56.48,171.5 -169.27,213.63 18.34,30.98 37.99,62.31 58.58,94.05l85.19 131.1c50.23,77.42 83.65,121.62 100.08,132.4 8.51,5.49 20.4,8.12 35.54,8.12l5.44 5.69 0 35.31zm-837.7 0l-5.1 5.69c-36.83,-2.28 -93.85,-3.42 -170.93,-3.42 -76.71,0 -133.53,1.13 -170.4,3.42l-5.1 -5.69 0 -37.03 5.69 -5.46c37.57,-2.27 59.11,-4.14 64.58,-5.67 10.78,-2.83 17.03,-9.65 18.9,-20.4 4.72,-26.63 7.18,-83.7 7.18,-171.5l0 -292.77c0,-87.85 -2.47,-145.07 -7.18,-171.5 -1.87,-10.78 -8.12,-17.57 -18.9,-20.6 -5.47,-1.33 -27.01,-3.22 -64.58,-5.49l-5.69 -5.49 0 -37.57 5.69 -5.1c35.32,2.27 92.16,3.4 170.37,3.4 77.81,0 134.47,-1.13 169.81,-3.4l5.65 5.1 0 37.57 -5.65 5.49c-37.61,2.27 -59.14,4.16 -64.6,5.49 -10.78,3.02 -17.01,9.81 -18.9,20.6 -4.7,26.43 -7.17,83.65 -7.17,171.5l0 292.77c0,87.8 2.47,144.87 7.17,171.5 1.89,10.75 8.12,17.57 18.9,20.4 5.46,1.53 26.99,3.4 64.6,5.67l5.65 5.46 0 37.03zm-418.94 -775.17c-4.52,27.19 -6.79,55.54 -7.18,84.6l-1.13 92.37 -5.46 5.67 -34.94 0 -6.03 -5.1c-1.89,-47.22 -3.96,-74.79 -6.05,-82.91 -4.54,-14.74 -16.27,-23.46 -35.52,-26.09 -7.38,-1.13 -42.13,-1.68 -104.09,-1.68l-74.03 0c-0.76,13.02 -1.12,64.2 -1.12,153.93l0 314.3c0,87.8 2.45,144.87 7.18,171.5 1.89,10.75 8.12,17.57 18.87,20.4 5.49,1.53 27.02,3.4 64.6,5.67l5.69 5.46 0 37.03 -5.69 5.69c-36.44,-2.28 -93.31,-3.42 -170.37,-3.42 -78.95,0 -135.82,1.13 -170.37,3.42l-5.1 -5.11 0 -37.61 5.64 -5.46c37.61,-2.27 59.14,-4.14 64.63,-5.67 10.75,-2.83 17,-9.65 18.87,-20.4 4.75,-26.63 7.18,-83.7 7.18,-171.5l0 -314.3c0,-91.22 -0.56,-142.44 -1.69,-153.93l-79.14 0c-65.93,0 -104.44,2.07 -115.62,6.23 -5.84,2.04 -9.99,4.9 -12.08,8.12 -3.4,6.03 -6.23,17.74 -8.32,35.5 -2.63,19.44 -4.34,39.65 -5.1,60.24l-5.46 5.67 -34.94 0 -6.07 -5.67 -1.1 -94.61c-0.39,-26.46 -2.47,-54.04 -6.62,-82.36l5.1 -5.67c21.73,3.76 101.07,5.67 237.82,5.67l224.18 0c126.18,0 205.49,-1.91 238,-5.67l5.46 5.67zm-768.53 775.17l-5.69 5.69c-36.44,-2.28 -93.29,-3.42 -170.37,-3.42 -78.95,0 -135.82,1.13 -170.37,3.42l-5.69 -5.11 0 -37.61 6.05 -5.46c37.8,-2.27 59.34,-4.14 64.78,-5.67 10.78,-2.83 17.03,-9.65 18.9,-20.4 4.72,-26.63 7.18,-83.7 7.18,-171.5l0 -133.35c-18.9,-1.91 -78.58,-2.86 -179.26,-2.86 -92.92,0 -154.29,0.95 -183.78,2.86l0 133.35c0,87.8 2.47,144.87 7.17,171.5 1.89,10.75 8.12,17.57 18.9,20.4 5.49,1.53 27.02,3.4 64.79,5.67l5.49 5.46 0 37.03 -4.95 5.69c-37.02,-2.28 -93.85,-3.42 -170.55,-3.42 -79.31,0 -136.18,1.13 -170.37,3.42l-5.49 -5.11 0 -37.61 5.49 -5.46c37.61,-2.27 59.12,-4.14 64.78,-5.67 10.59,-2.83 16.83,-9.65 18.7,-20.4 4.91,-26.63 7.18,-83.7 7.18,-171.5l0 -292.77c0,-87.85 -2.27,-145.07 -7.18,-171.5 -1.87,-10.78 -8.12,-17.57 -18.7,-20.6 -5.65,-1.33 -27.17,-3.22 -64.78,-5.49l-5.49 -5.49 0 -37.57 5.49 -5.1c35.32,2.27 92.16,3.4 170.37,3.4 80.08,0 136.95,-1.13 170.55,-3.4l4.95 5.1 0 38.17 -5.49 4.9c-37.77,2.27 -59.3,4.16 -64.79,5.49 -10.78,3.02 -17.01,9.81 -18.9,20.6 -4.7,26.43 -7.17,83.65 -7.17,171.5l0 91.22c39.09,1.89 92.93,2.83 161.69,2.83 107.66,0 174.72,-0.94 201.35,-2.83l0 -91.22c0,-87.85 -2.47,-145.07 -7.18,-171.5 -1.87,-10.78 -8.12,-17.57 -18.9,-20.6 -5.44,-1.33 -26.97,-3.22 -64.78,-5.49l-6.05 -5.49 0 -37.57 5.69 -5.1c35.68,2.27 92.56,3.4 170.37,3.4 80.47,0 137.31,-1.13 170.37,-3.4l5.69 5.1 0 38.17 -5.1 4.9c-38.36,2.27 -60.09,4.16 -65.19,5.49 -10.78,3.02 -16.98,9.81 -18.9,20.6 -4.9,26.43 -7.17,83.65 -7.17,171.5l0 292.77c0,87.8 2.27,144.87 7.17,171.5 1.92,10.75 8.12,17.57 18.9,20.4 5.49,1.53 27.02,3.4 64.6,5.67l5.69 5.46 0 37.03zm-967.84 -253.47c0,61.01 -17.37,114.63 -52.12,161.11 -30.23,40.98 -69.89,71.4 -119.02,91.22 -44.95,18.51 -98.6,27.76 -160.92,27.76 -77.47,0 -153.58,-17.74 -227.98,-53.07l-6.64 -12.26c10.21,-42.32 15.5,-102.76 15.5,-180.97l5.49 -5.47 35.32 0 5.11 5.47 0 12.87c0,20.56 2.24,47.77 6.59,81.77 13.22,23.6 37.02,44 71.42,60.83 35.68,17.72 73.06,26.63 111.8,26.63 72.91,0 123.54,-25.49 151.46,-76.32 14.56,-26.25 21.73,-53.27 21.73,-81.43 0,-47.21 -19.81,-81.02 -59.3,-101.22 -19.44,-10.01 -50.99,-18.33 -94.63,-24.95 -98.41,-15.09 -163.2,-34.19 -194.17,-57.02 -46.84,-34.58 -70.28,-88.23 -70.28,-160.95 0,-75.74 25.53,-135.98 76.32,-180.95 53.85,-47.22 128.83,-70.84 224.77,-70.84 86.31,0 156.03,13.81 209.11,41.57l3.76 13.23c-8.68,43.8 -14.17,96.71 -15.84,158.29l-6.25 5.49 -34.75 0 -5.67 -5.49c-0.95,-44.4 -2.83,-73.11 -5.49,-86.33 -11.34,-17.37 -31.34,-32.12 -59.7,-44.4 -30.19,-12.48 -61.74,-18.7 -94.59,-18.7 -49.51,0 -88.59,13.05 -117.31,39.3 -27.02,24.74 -40.43,56.67 -40.43,95.76 0,42.32 15.3,73.47 45.89,93.51 19.84,12.82 66.86,25.1 141.11,37.02 7.76,1.13 29.29,4.72 64.79,11.14 21.71,3.6 41.72,8.86 60.24,15.88 37.21,14.15 65.37,35.5 84.07,64.2 20.4,31.38 30.59,70.48 30.59,117.31zm-660.33 253.47l-4.93 5.69c-81.97,-2.28 -131.26,-3.42 -148.26,-3.42 -67.8,0 -130.9,1.13 -189.27,3.42l-4.9 -5.69 0 -34.75 5.46 -6.25 48.16 -2.63c20.23,-1.13 30.44,-8.32 30.44,-21.53 0,-7.76 -5.11,-25.13 -15.5,-52.15l-44.79 -116.72c-50.99,-0.74 -102.91,-1.13 -156.2,-1.13 -28.71,0 -71.38,0.39 -128.26,1.13l-24.34 67.42c-18.52,51.38 -27.78,83.5 -27.78,96.35 0,13.97 8.71,22.29 26.09,24.92 9.62,1.51 28.32,3.01 56.48,4.34l5.46 5.69 0 35.31 -5.46 5.69c-68.2,-2.28 -112.21,-3.42 -131.66,-3.42 -15.11,0 -52.71,1.13 -112.39,3.42l-5.46 -5.11 0 -35.88 6.03 -5.69c37.97,-2.07 61.37,-9.63 69.89,-22.67 8.68,-12.82 41.34,-89.73 97.81,-230.61l144.33 -361.36c10.75,-28.12 27.02,-70.23 48.73,-126.71l78.57 0 293.35 689.98c11.34,26.27 21.7,40.98 30.95,44.2 12.11,4.54 29.68,6.79 52.52,6.79l4.93 6.07 0 35.31zm-350.76 -297.67l-118.44 -289.94 -113.35 289.94c30.24,1.13 69.54,1.68 117.9,1.68 46.83,0 84.78,-0.54 113.89,-1.68zm-545.7 115.02c-8.15,54.01 -12.11,114.83 -12.11,182.64l-5.64 5.69 -402.16 -3.42c-67.23,0 -114.63,1.13 -142.21,3.42l-5.67 -5.69 0 -15.5 2.81 -6.59c27.22,-17.37 42.13,-28.16 44.21,-32.66 3.4,-6.62 5.47,-31.18 6.23,-73.5l1.53 -124.08 0 -280.49c0,-87.85 -2.28,-145.07 -7.18,-171.5 -1.89,-10.78 -8.12,-17.57 -18.7,-20.6 -5.65,-1.33 -27.19,-3.22 -64.79,-5.49l-5.49 -5.49 0 -37.57 5.49 -5.1c37.97,2.27 93.69,3.4 167.16,3.4 75.95,0 133.73,-1.13 173.23,-3.4l5.49 5.1 0 38.17 -5.49 4.9c-37.77,2.27 -59.3,4.16 -64.79,5.49 -10.78,3.02 -17.01,9.81 -18.9,20.6 -4.7,26.43 -7.18,83.65 -7.18,171.5l0 330.92c0,48.36 0.95,95.18 2.86,140.53l75.15 0c107.86,0 173.79,-4.16 198.18,-12.67 4.11,-1.5 6.97,-3.57 8.86,-6.23 3.57,-5.11 7.18,-16.04 10.59,-33.04l13.22 -68.79 5.46 -6.03 33.81 0 6.07 5.49zm-703.77 -70.83c0,61.01 -17.37,114.63 -52.12,161.11 -30.24,40.98 -69.89,71.4 -119.03,91.22 -44.94,18.51 -98.59,27.76 -160.92,27.76 -77.45,0 -153.57,-17.74 -227.98,-53.07l-6.62 -12.26c10.21,-42.32 15.5,-102.76 15.5,-180.97l5.49 -5.47 35.32 0 5.1 5.47 0 12.87c0,20.56 2.25,47.77 6.61,81.77 13.22,23.6 37.02,44 71.4,60.83 35.7,17.72 73.08,26.63 111.82,26.63 72.91,0 123.54,-25.49 151.46,-76.32 14.55,-26.25 21.73,-53.27 21.73,-81.43 0,-47.21 -19.81,-81.02 -59.3,-101.22 -19.44,-10.01 -50.99,-18.33 -94.63,-24.95 -98.41,-15.09 -163.2,-34.19 -194.18,-57.02 -46.83,-34.58 -70.27,-88.23 -70.27,-160.95 0,-75.74 25.53,-135.98 76.32,-180.95 53.85,-47.22 128.83,-70.84 224.76,-70.84 86.33,0 156.05,13.81 209.11,41.57l3.78 13.23c-8.68,43.8 -14.17,96.71 -15.86,158.29l-6.23 5.49 -34.75 0 -5.69 -5.49c-0.94,-44.4 -2.83,-73.11 -5.49,-86.33 -11.32,-17.37 -31.33,-32.12 -59.68,-44.4 -30.21,-12.48 -61.74,-18.7 -94.61,-18.7 -49.49,0 -88.59,13.05 -117.29,39.3 -27.02,24.74 -40.43,56.67 -40.43,95.76 0,42.32 15.3,73.47 45.89,93.51 19.84,12.82 66.86,25.1 141.11,37.02 7.76,1.13 29.29,4.72 64.78,11.14 21.73,3.6 41.73,8.86 60.24,15.88 37.23,14.15 65.39,35.5 84.09,64.2 20.38,31.38 30.59,70.48 30.59,117.31zm-685.08 -153.19c0,136.16 -39.68,242.92 -118.99,320.33 -77.06,75.38 -182.48,112.95 -316.01,112.95 -126.17,0 -225.17,-35.5 -297.13,-106.53 -71.96,-71.02 -108.04,-169.81 -108.04,-296.37 0,-177.35 67.8,-300.3 203.26,-368.49 61.57,-30.98 137.31,-46.48 227.4,-46.48 128.63,0 228.95,33.65 300.53,101.27 72.52,68.56 108.98,163 108.98,283.32zm-170.55 28.7c0,-106.9 -21.35,-191.9 -64.43,-254.8 -43.06,-62.9 -105.93,-94.23 -188.89,-94.23 -109.73,0 -182.25,49.1 -218.13,147.7 -18.34,50.43 -27.6,107.1 -27.6,169.81 0,114.09 20.97,203.98 63.08,270.1 43.46,68.2 108.61,102.35 195.32,102.35 105.23,0 175.86,-51.73 211.93,-155.43 19.26,-54.98 28.71,-116.75 28.71,-185.5zm-780.66 124.49c0,61.01 -17.37,114.63 -52.12,161.11 -30.23,40.98 -69.89,71.4 -119.02,91.22 -44.95,18.51 -98.6,27.76 -160.92,27.76 -77.45,0 -153.58,-17.74 -227.98,-53.07l-6.62 -12.26c10.19,-42.32 15.48,-102.76 15.48,-180.97l5.49 -5.47 35.34 0 5.1 5.47 0 12.87c0,20.56 2.24,47.77 6.59,81.77 13.22,23.6 37.02,44 71.42,60.83 35.68,17.72 73.06,26.63 111.8,26.63 72.91,0 123.54,-25.49 151.48,-76.32 14.55,-26.25 21.71,-53.27 21.71,-81.43 0,-47.21 -19.81,-81.02 -59.29,-101.22 -19.46,-10.01 -50.99,-18.33 -94.64,-24.95 -98.41,-15.09 -163.18,-34.19 -194.17,-57.02 -46.83,-34.58 -70.28,-88.23 -70.28,-160.95 0,-75.74 25.53,-135.98 76.32,-180.95 53.85,-47.22 128.83,-70.84 224.77,-70.84 86.31,0 156.05,13.81 209.11,41.57l3.76 13.23c-8.66,43.8 -14.15,96.71 -15.84,158.29l-6.23 5.49 -34.75 0 -5.69 -5.49c-0.95,-44.4 -2.83,-73.11 -5.49,-86.33 -11.34,-17.37 -31.34,-32.12 -59.7,-44.4 -30.19,-12.48 -61.74,-18.7 -94.59,-18.7 -49.49,0 -88.59,13.05 -117.31,39.3 -27.02,24.74 -40.43,56.67 -40.43,95.76 0,42.32 15.3,73.47 45.89,93.51 19.84,12.82 66.86,25.1 141.11,37.02 7.76,1.13 29.29,4.72 64.79,11.14 21.73,3.6 41.73,8.86 60.24,15.88 37.21,14.15 65.37,35.5 84.07,64.2 20.4,31.38 30.59,70.48 30.59,117.31zm-677.91 253.47l-5.11 5.69c-36.82,-2.28 -93.85,-3.42 -170.91,-3.42 -76.71,0 -133.55,1.13 -170.4,3.42l-5.1 -5.69 0 -37.03 5.67 -5.46c37.57,-2.27 59.11,-4.14 64.6,-5.67 10.78,-2.83 17.03,-9.65 18.9,-20.4 4.72,-26.63 7.18,-83.7 7.18,-171.5l0 -292.77c0,-87.85 -2.47,-145.07 -7.18,-171.5 -1.87,-10.78 -8.12,-17.57 -18.9,-20.6 -5.49,-1.33 -27.02,-3.22 -64.6,-5.49l-5.67 -5.49 0 -37.57 5.67 -5.1c35.34,2.27 92.18,3.4 170.37,3.4 77.81,0 134.49,-1.13 169.82,-3.4l5.65 5.1 0 37.57 -5.65 5.49c-37.61,2.27 -59.14,4.16 -64.6,5.49 -10.78,3.02 -17.01,9.81 -18.9,20.6 -4.7,26.43 -7.18,83.65 -7.18,171.5l0 292.77c0,87.8 2.48,144.87 7.18,171.5 1.89,10.75 8.12,17.57 18.9,20.4 5.46,1.53 26.99,3.4 64.6,5.67l5.65 5.46 0 37.03zm-418.94 -775.17c-4.52,27.19 -6.79,55.54 -7.18,84.6l-1.13 92.37 -5.46 5.67 -34.94 0 -6.03 -5.1c-1.89,-47.22 -3.96,-74.79 -6.05,-82.91 -4.54,-14.74 -16.27,-23.46 -35.52,-26.09 -7.38,-1.13 -42.13,-1.68 -104.09,-1.68l-74.05 0c-0.74,13.02 -1.1,64.2 -1.1,153.93l0 314.3c0,87.8 2.43,144.87 7.18,171.5 1.87,10.75 8.12,17.57 18.87,20.4 5.49,1.53 27.02,3.4 64.6,5.67l5.67 5.46 0 37.03 -5.67 5.69c-36.44,-2.28 -93.31,-3.42 -170.37,-3.42 -78.96,0 -135.82,1.13 -170.37,3.42l-5.11 -5.11 0 -37.61 5.65 -5.46c37.61,-2.27 59.14,-4.14 64.63,-5.67 10.75,-2.83 16.98,-9.65 18.87,-20.4 4.73,-26.63 7.18,-83.7 7.18,-171.5l0 -314.3c0,-91.22 -0.56,-142.44 -1.69,-153.93l-79.14 0c-65.93,0 -104.44,2.07 -115.62,6.23 -5.85,2.04 -10.01,4.9 -12.08,8.12 -3.4,6.03 -6.23,17.74 -8.32,35.5 -2.63,19.44 -4.36,39.65 -5.1,60.24l-5.46 5.67 -34.94 0 -6.07 -5.67 -1.12 -94.61c-0.38,-26.46 -2.47,-54.04 -6.62,-82.36l5.11 -5.67c21.71,3.76 101.05,5.67 237.81,5.67l224.18 0c126.2,0 205.51,-1.91 238.02,-5.67l5.46 5.67zm-753.62 773.48l-5.65 5.65 -112.79 -1.69c-18.51,-0.39 -50.79,0.2 -96.88,1.69 -11.14,-13.77 -29.09,-43.82 -54.24,-90.29l-115.19 -213.04 -43.64 62.51c-55.34,79.34 -106.53,159.58 -153.75,240.81 -17.01,-1.13 -33.99,-1.69 -51.02,-1.69 -34.35,0 -59.29,0.56 -75.15,1.69l-5.67 -5.65 0 -35.34 5.67 -6.03c30.21,-2.27 48.32,-5.49 54.77,-9.45 10.96,-6.99 36.08,-37.02 75.18,-90.29l72.52 -97.85c2.84,-3.76 32.5,-43.61 88.58,-119.54l-42.11 -74.23 -67.62 -116.72c-47.77,-82.56 -84.44,-131.46 -109.53,-146.6 -8.32,-5.1 -17.21,-7.73 -26.46,-7.73 -7.35,0 -18.87,0.54 -34.37,1.68l-7.17 -5.64 -4.36 -29.31 4.9 -8.3c51.96,-10.57 119,-25.49 200.81,-44.21 23.41,15.14 47.4,42.32 71.96,81.82 11.88,19.25 30.39,52.12 55.34,98.59l62.51 116.16 71.96 -105.21c59.5,-86.87 98.04,-146.2 115.78,-177.55 15.14,1.5 30.05,2.27 44.79,2.27 24.74,0 49.85,-0.77 75.18,-2.27l5.65 5.49 0 36.64 -5.65 5.49c-25.33,0.35 -42.32,3.17 -50.64,8.28 -8.3,5.1 -24.34,22.67 -48.34,52.5 -24.01,29.85 -55.54,71.42 -94.64,124.49 -21.73,29.65 -48.36,66.31 -79.7,110.13 18.52,33.99 44.76,81.77 79.14,143.34l70.84 121.85c39.1,67.06 63.64,105.03 73.85,113.69 10.19,8.71 26.63,13.05 49.49,13.05l5.65 5.46 0 35.34z" class="colore2cdaf svgShape"/></svg></g></svg>