<svg viewBox="0 0 23 16" xmlns="http://www.w3.org/2000/svg"><path d="m14.8808205 7.71692308c-2.0274872-1.08348718-5.95323076-3.11958975-5.95323076-3.11958975l5.23405126 3.51794872c.0004103 0-.9534359.52882051.7191795-.39835897z" fill="#e8e0e0"/><path d="m9.30912821 15.6890256c-4.21128206-.0775384-5.64964103-.147282-6.53374359-.3294359-.59815385-.1210256-1.11794872-.3897435-1.49907693-.7794871-.2945641-.2949744-.52882051-.7450257-.7105641-1.3694359-.15589744-.5202052-.21661538-.9530257-.30317949-2.0102564-.13251282-2.38605133-.16410256-4.33682056 0-6.51651286.13538462-1.20369231.20102564-2.63261539 1.10030769-3.46625641.42461539-.39015385.91856411-.64123077 1.47323077-.74502564.86646154-.16451283 4.55794872-.29456411 8.37948714-.29456411 3.8129231 0 7.5126154.13005128 8.3798975.29456411.6929231.13005128 1.3427692.51979487 1.7243077 1.02235897.8205128 1.29066667.8348718 2.89558974.9181538 4.15097436.0344616.59815384.0344616 3.99466666 0 4.59282048-.129641 1.984-.2338461 2.6859487-.5284102 3.4137436-.1821539.4594872-.3376411.7019487-.6067693.9706667-.4220868.4135212-.9601807.6885788-1.5425641.7885128-3.6443077.2740513-6.7388718.3335385-10.25107689.2773333zm5.58071799-7.97210252c-2.0274872-1.08348718-3.9688206-2.08820513-5.95323082-3.12820513v6.22194875c2.08820512-1.13517952 4.28964102-2.17517952 5.96184612-3.10235901z" fill="#cd201f"/></svg>